<svg xmlns="http://www.w3.org/2000/svg" viewBox="0 0 86 86"><defs><style>.cls-1{fill:#c90120;}.cls-2{fill:#fff;}</style></defs><title>Recurso 5</title><g id="Capa_2" data-name="Capa 2"><g id="Capa_1-2" data-name="Capa 1"><circle class="cls-1" cx="43" cy="43" r="43"/><path class="cls-2" d="M57.94,64.45l-6-13.5a.75.75,0,0,0-.69-.45H34.75a.75.75,0,0,0-.68.45l-6,13.5a.75.75,0,0,0,.68,1.05H35.5a.75.75,0,0,0,.69-.46L38.5,59.5a4.85,4.85,0,0,1,4.5-3h0a4.85,4.85,0,0,1,4.5,3L49.81,65a.75.75,0,0,0,.69.46h6.75a.75.75,0,0,0,.69-1.05ZM51,64l-2.12-5.07A6.35,6.35,0,0,0,43,55h0a6.35,6.35,0,0,0-5.88,3.93L35,64H29.9l5.33-12H50.76L56.1,64Z"/><path class="cls-2" d="M51.25,47.5H34.75a.75.75,0,0,0-.75.75v3h1.5V49h15v2.25H52v-3A.75.75,0,0,0,51.25,47.5Z"/><path class="cls-2" d="M47.47,36.81a.75.75,0,0,0-.72-.56h-7.5a.75.75,0,0,0-.73.56l-3,11.25,1.45.39,2.85-10.69h6.35L49,48.44l1.45-.39Z"/><path class="cls-2" d="M43.72,40.53a.75.75,0,0,0-1.44,0L40,48l1.44.43L43,43.36l1.53,5.11L46,48Z"/><path class="cls-2" d="M46.75,33.25h-7.5a.75.75,0,0,0-.75.75v3a.75.75,0,0,0,.75.75h7.5A.75.75,0,0,0,47.5,37V34A.75.75,0,0,0,46.75,33.25Zm-.75,3H40v-1.5h6Z"/><path class="cls-2" d="M45.47,25.65A2.5,2.5,0,0,0,43,23.5h0a2.5,2.5,0,0,0-2.46,2.14l-1.28,8.25,1.48.23L42,25.85A1,1,0,0,1,43,25h0a1,1,0,0,1,1,.86l1.28,8.25,1.48-.23Z"/><rect class="cls-2" x="42.25" y="20.5" width="1.5" height="3.75"/><rect class="cls-2" x="40.75" y="26.5" width="3.75" height="1.5"/><rect class="cls-2" x="20.5" y="64" width="17.25" height="1.5"/><rect class="cls-2" x="48.25" y="64" width="10.5" height="1.5"/><path class="cls-2" d="M33.25,29.5h-12a.75.75,0,0,0-.75.75v10.5a.75.75,0,0,0,.75.75h12a.75.75,0,0,0,.75-.75V30.25A.75.75,0,0,0,33.25,29.5ZM32.5,40H22V31H32.5v9Z"/><path class="cls-2" d="M33.78,29.72l-3-3a.75.75,0,0,0-.53-.22h-6a.75.75,0,0,0-.53.22l-3,3A.75.75,0,0,0,21.25,31h12a.75.75,0,0,0,.53-1.28ZM23.06,29.5l1.5-1.5h5.38l1.5,1.5Z"/><path class="cls-2" d="M27.25,32.5a3,3,0,1,0,3,3A3,3,0,0,0,27.25,32.5Zm0,4.5a1.5,1.5,0,1,1,1.5-1.5A1.5,1.5,0,0,1,27.25,37Z"/><path class="cls-2" d="M31.75,40h-9a.75.75,0,0,0-.75.75V65.5h1.5v-24H31V58h1.5V40.75A.75.75,0,0,0,31.75,40Z"/><path class="cls-2" d="M30.25,23.5h-6a.75.75,0,0,0-.75.75v3a.75.75,0,0,0,.75.75h6a.75.75,0,0,0,.75-.75v-3A.75.75,0,0,0,30.25,23.5Zm-.75,3H25V25h4.5Z"/><path class="cls-2" d="M30.78,23.72l-3-3a.75.75,0,0,0-1.06,0l-3,3A.75.75,0,0,0,24.25,25h6a.75.75,0,0,0,.53-1.28Zm-4.72-.22,1.19-1.19,1.19,1.19Z"/><rect class="cls-2" x="25" y="43" width="1.5" height="4.5"/><rect class="cls-2" x="28" y="43" width="1.5" height="4.5"/><rect class="cls-2" x="25" y="61" width="1.5" height="4.5"/><rect class="cls-2" x="28" y="61" width="1.5" height="4.5"/><rect class="cls-2" x="25" y="55" width="1.5" height="4.5"/><rect class="cls-2" x="28" y="55" width="1.5" height="4.5"/><rect class="cls-2" x="25" y="49" width="1.5" height="4.5"/><rect class="cls-2" x="28" y="49" width="1.5" height="4.5"/><path class="cls-2" d="M63.25,25h-12a.75.75,0,0,0-.75.75v25.5H52V26.5H62.5V55h-9v1.5h9.75a.75.75,0,0,0,.75-.75v-30A.75.75,0,0,0,63.25,25Z"/><rect class="cls-2" x="49.75" y="31" width="15" height="1.5"/><path class="cls-2" d="M57.25,28a.75.75,0,0,0-.75.75v3a.75.75,0,1,0,1.5,0v-3A.75.75,0,0,0,57.25,28Z"/><path class="cls-2" d="M54.25,28a.75.75,0,0,0-.75.75v3a.75.75,0,1,0,1.5,0v-3A.75.75,0,0,0,54.25,28Z"/><path class="cls-2" d="M60.25,28a.75.75,0,0,0-.75.75v3a.75.75,0,1,0,1.5,0v-3A.75.75,0,0,0,60.25,28Z"/><path class="cls-2" d="M61.75,20.5h-9a.75.75,0,0,0-.75.75v4.5a.75.75,0,0,0,.75.75h9a.75.75,0,0,0,.75-.75v-4.5A.75.75,0,0,0,61.75,20.5ZM61,25H53.5V22H61Z"/><path class="cls-2" d="M55.75,23.5a.75.75,0,0,0-.75.75v1.5a.75.75,0,0,0,1.5,0v-1.5A.75.75,0,0,0,55.75,23.5Z"/><path class="cls-2" d="M58.75,23.5a.75.75,0,0,0-.75.75V25a.75.75,0,0,0,1.5,0v-.75A.75.75,0,0,0,58.75,23.5Z"/><path class="cls-2" d="M64.75,55H53.5v1.5H64v9h1.5V55.75A.75.75,0,0,0,64.75,55Z"/><path class="cls-2" d="M57.25,58A2.25,2.25,0,0,0,55,60.25V61.4h1.5V60.25a.75.75,0,0,1,1.5,0v4.5h1.5v-4.5A2.25,2.25,0,0,0,57.25,58Z"/><rect class="cls-2" x="57.25" y="64" width="7.5" height="1.5"/><path class="cls-2" d="M63.25,58A2.25,2.25,0,0,0,61,60.25v4.5h1.5v-4.5a.75.75,0,0,1,1.5,0v4.5h1.5v-4.5A2.25,2.25,0,0,0,63.25,58Z"/><rect class="cls-2" x="49.75" y="37" width="15" height="1.5"/><path class="cls-2" d="M57.25,34a.75.75,0,0,0-.75.75v3a.75.75,0,0,0,1.5,0v-3A.75.75,0,0,0,57.25,34Z"/><path class="cls-2" d="M54.25,34a.75.75,0,0,0-.75.75v3a.75.75,0,1,0,1.5,0v-3A.75.75,0,0,0,54.25,34Z"/><path class="cls-2" d="M60.25,34a.75.75,0,0,0-.75.75v3a.75.75,0,0,0,1.5,0v-3A.75.75,0,0,0,60.25,34Z"/><rect class="cls-2" x="49.75" y="43" width="15" height="1.5"/><path class="cls-2" d="M57.25,40a.75.75,0,0,0-.75.75v3a.75.75,0,0,0,1.5,0v-3A.75.75,0,0,0,57.25,40Z"/><path class="cls-2" d="M54.25,40a.75.75,0,0,0-.75.75v3a.75.75,0,0,0,1.5,0v-3A.75.75,0,0,0,54.25,40Z"/><path class="cls-2" d="M60.25,40a.75.75,0,0,0-.75.75v3a.75.75,0,0,0,1.5,0v-3A.75.75,0,0,0,60.25,40Z"/><rect class="cls-2" x="51.25" y="49" width="13.5" height="1.5"/><path class="cls-2" d="M57.25,46a.75.75,0,0,0-.75.75v3a.75.75,0,0,0,1.5,0v-3A.75.75,0,0,0,57.25,46Z"/><path class="cls-2" d="M54.25,46a.75.75,0,0,0-.75.75v3a.75.75,0,0,0,1.5,0v-3A.75.75,0,0,0,54.25,46Z"/><path class="cls-2" d="M60.25,46a.75.75,0,0,0-.75.75v3a.75.75,0,1,0,1.5,0v-3A.75.75,0,0,0,60.25,46Z"/><rect class="cls-2" x="52.75" y="55" width="12" height="1.5"/><path class="cls-2" d="M57.25,52a.75.75,0,0,0-.75.75v3a.75.75,0,0,0,1.5,0v-3A.75.75,0,0,0,57.25,52Z"/><path class="cls-2" d="M54.25,52a.75.75,0,0,0-.75.75v3a.75.75,0,0,0,1.5,0v-3A.75.75,0,0,0,54.25,52Z"/><path class="cls-2" d="M60.25,52a.75.75,0,0,0-.75.75v3a.75.75,0,0,0,1.5,0v-3A.75.75,0,0,0,60.25,52Z"/></g></g></svg>