<svg xmlns="http://www.w3.org/2000/svg" viewBox="0 0 86 86"><defs><style>.cls-1{fill:#e19d2f;}.cls-2{fill:#fff;}</style></defs><title>Recurso 6</title><g id="Capa_2" data-name="Capa 2"><g id="Capa_1-2" data-name="Capa 1"><circle class="cls-1" cx="43" cy="43" r="43"/><path class="cls-2" d="M40.65,29.68H23.42A3.92,3.92,0,0,0,19.5,33.6V58.67a3.92,3.92,0,0,0,3.92,3.92H33.6V61H23.42a2.35,2.35,0,0,1-2.35-2.35V33.6a2.35,2.35,0,0,1,2.35-2.35H40.65A2.35,2.35,0,0,1,43,33.6v.78h1.57V33.6A3.92,3.92,0,0,0,40.65,29.68Z"/><path class="cls-2" d="M36.73,19.5h-9.4a2.35,2.35,0,1,0,0,4.7h9.4a2.35,2.35,0,1,0,0-4.7Zm0,3.13h-9.4a.78.78,0,1,1,0-1.57h9.4a.78.78,0,0,1,0,1.57Z"/><rect class="cls-2" x="28.12" y="23.42" width="1.57" height="7.05"/><rect class="cls-2" x="34.38" y="23.42" width="1.57" height="7.05"/><rect class="cls-2" x="24.2" y="43" width="1.57" height="14.1"/><rect class="cls-2" x="33.6" y="34.38" width="1.57" height="6.27"/><path class="cls-2" d="M23,61a2.74,2.74,0,1,0,2.74,2.74A2.74,2.74,0,0,0,23,61Zm0,3.92a1.18,1.18,0,1,1,1.18-1.18A1.18,1.18,0,0,1,23,64.93Z"/><rect class="cls-2" x="28.9" y="34.38" width="1.57" height="22.72"/><path class="cls-2" d="M28.06,41.14l-1.57-3.92a.78.78,0,0,0-.43-.43.77.77,0,0,0-.61,0L20,39.15a.78.78,0,0,0-.47.72v4.7a.78.78,0,0,0,.78.78.77.77,0,0,0,.32-.07l7.05-3.13A.78.78,0,0,0,28.06,41.14Zm-7,2.22v-3l4.27-1.83,1,2.47Z"/><rect class="cls-2" x="24.2" y="34.38" width="1.57" height="3.92"/><rect class="cls-2" x="38.3" y="34.38" width="1.57" height="6.27"/><path class="cls-2" d="M41,61a2.74,2.74,0,1,0,2.74,2.74A2.74,2.74,0,0,0,41,61Zm0,3.92a1.18,1.18,0,1,1,1.18-1.18A1.18,1.18,0,0,1,41,64.93Z"/><path class="cls-2" d="M62.58,39.08H35.17A3.92,3.92,0,0,0,31.25,43V58.67a3.92,3.92,0,0,0,3.92,3.92H62.58a3.92,3.92,0,0,0,3.92-3.92V43A3.92,3.92,0,0,0,62.58,39.08Zm2.35,19.58A2.35,2.35,0,0,1,62.58,61H35.17a2.35,2.35,0,0,1-2.35-2.35V43a2.35,2.35,0,0,1,2.35-2.35H62.58A2.35,2.35,0,0,1,64.93,43V58.67Z"/><path class="cls-2" d="M52.4,35.95H45.35a.78.78,0,0,0-.78.78v3.13h1.57V37.52h5.48v2.35h1.57V36.73A.78.78,0,0,0,52.4,35.95Z"/><path class="cls-2" d="M52.4,32.82H45.35a3.92,3.92,0,0,0-3.92,3.92v3.13H43V36.73a2.35,2.35,0,0,1,2.35-2.35H52.4a2.35,2.35,0,0,1,2.35,2.35v3.13h1.57V36.73A3.92,3.92,0,0,0,52.4,32.82Z"/><path class="cls-2" d="M52.25,48l-3.92-5.48a.81.81,0,0,0-1.27,0L43.15,48a.78.78,0,0,0,.64,1.24h7.83A.78.78,0,0,0,52.25,48Zm-6.95-.33,2.39-3.35,2.39,3.35Z"/><path class="cls-2" d="M59.89,50.31c-2.46-.8-5,.21-5.68,2.26a3.6,3.6,0,0,0,.49,3.13,5.22,5.22,0,0,0,2.76,2,5.51,5.51,0,0,0,1.71.27,4,4,0,0,0,4-2.54C63.81,53.43,62.35,51.11,59.89,50.31ZM61.65,55c-.4,1.23-2.06,1.8-3.7,1.26A3.65,3.65,0,0,1,56,54.85a2.07,2.07,0,0,1-.31-1.79h0a2.44,2.44,0,0,1,2.46-1.46,4,4,0,0,1,1.24.2C61,52.33,62.05,53.77,61.65,55Z"/><path class="cls-2" d="M34.77,61a2.74,2.74,0,1,0,2.74,2.74A2.74,2.74,0,0,0,34.77,61Zm0,3.92a1.18,1.18,0,1,1,1.17-1.18A1.18,1.18,0,0,1,34.77,64.93Z"/><path class="cls-2" d="M63,61a2.74,2.74,0,1,0,2.74,2.74A2.74,2.74,0,0,0,63,61Zm0,3.92a1.18,1.18,0,1,1,1.18-1.18A1.18,1.18,0,0,1,63,64.93Z"/><rect class="cls-2" x="38.3" y="55.53" width="1.57" height="6.27"/><path class="cls-2" d="M39.08,39.08H35.95a.78.78,0,0,0-.78.78v9.4h1.57V40.65H38.3V50.83h1.57v-11A.78.78,0,0,0,39.08,39.08Z"/><rect class="cls-2" x="35.17" y="53.18" width="1.57" height="8.62"/><rect class="cls-2" x="61.02" y="56.32" width="1.57" height="5.48"/><path class="cls-2" d="M61.8,39.08H58.67a.78.78,0,0,0-.78.78v11h1.57V40.65H61V52.4h1.57V39.87A.78.78,0,0,0,61.8,39.08Z"/><rect class="cls-2" x="57.88" y="57.1" width="1.57" height="4.7"/><path class="cls-2" d="M41.83,51.72l-9.4-5.48-.79,1.35,8.77,5.11-.86,1.72-7.11-4.26-.81,1.34,7.83,4.7a.79.79,0,0,0,.4.11.78.78,0,0,0,.22,0,.79.79,0,0,0,.48-.4l1.57-3.13A.78.78,0,0,0,41.83,51.72Z"/></g></g></svg>