<svg xmlns="http://www.w3.org/2000/svg" viewBox="0 0 304.35 53.36"><defs><style>.cls-1{fill:#df5f16;}.cls-2{fill:#c90120;}.cls-3{fill:#e19d2f;}.cls-4{fill:#606060;}</style></defs><title>Recurso 3</title><g id="Capa_2" data-name="Capa 2"><g id="Capa_1-2" data-name="Capa 1"><g id="_Grupo_" data-name="&lt;Grupo&gt;"><rect class="cls-1" x="31.49" y="5.7" width="23.34" height="41.95"/><path id="_Trazado_" data-name="&lt;Trazado&gt;" class="cls-2" d="M33,26.68a26.63,26.63,0,0,1,10.19-21,26.68,26.68,0,1,0,0,41.95A26.63,26.63,0,0,1,33,26.68Z"/><path class="cls-3" d="M86.33,26.68a26.68,26.68,0,0,1-43.16,21,26.68,26.68,0,0,0,0-41.95,26.68,26.68,0,0,1,43.16,21ZM83.78,43.21v-.86h.35v-.17h-.88v.17h.35v.86Zm1.71,0v-1h-.27l-.31.71-.31-.71h-.27v1h.19v-.78l.29.67H85l.29-.68v.78Z"/></g><path id="_Trazado_compuesto_" data-name="&lt;Trazado compuesto&gt;" class="cls-4" d="M132.22,35.66V24.53c0-4.19-2.67-7-7-7.05A6.87,6.87,0,0,0,119,20.63a6.52,6.52,0,0,0-5.86-3.16,5.87,5.87,0,0,0-5.2,2.64V17.92h-3.86V35.66H108V25.83c0-3.08,1.71-4.71,4.34-4.71s3.86,1.67,3.86,4.68v9.87h3.9V25.83c0-3.08,1.78-4.71,4.34-4.71s3.9,1.67,3.9,4.68v9.87ZM189.9,17.92h-6.31V12.54h-3.9v5.38h-3.6v3.53h3.6v8.09c0,4.12,1.6,6.57,6.16,6.57a9.07,9.07,0,0,0,4.83-1.37l-1.11-3.3a7.13,7.13,0,0,1-3.41,1c-1.93,0-2.56-1.19-2.56-3v-8h6.31Zm32.92-.45a5.23,5.23,0,0,0-4.68,2.6V17.92h-3.82V35.66h3.86V25.72c0-2.93,1.26-4.57,3.79-4.57a6.29,6.29,0,0,1,2.41.45L225.57,18a8.25,8.25,0,0,0-2.75-.48ZM173,19.33a13.27,13.27,0,0,0-7.24-1.86c-4.49,0-7.39,2.15-7.39,5.68,0,2.9,2.15,4.68,6.12,5.23l1.82.26c2.12.3,3.12.85,3.12,1.86,0,1.37-1.41,2.15-4,2.15a9.45,9.45,0,0,1-5.9-1.86l-1.82,3a12.8,12.8,0,0,0,7.68,2.3c5.12,0,8.09-2.41,8.09-5.79,0-3.12-2.34-4.75-6.2-5.31l-1.82-.26c-1.67-.22-3-.56-3-1.74s1.26-2.08,3.38-2.08a11.44,11.44,0,0,1,5.53,1.52Zm103.41-1.86a5.23,5.23,0,0,0-4.68,2.6V17.92H268V35.66h3.86V25.72c0-2.93,1.26-4.57,3.79-4.57a6.29,6.29,0,0,1,2.41.45L279.2,18a8.25,8.25,0,0,0-2.75-.48Zm-49.74,9.32c0,5.38,3.75,9.32,9.47,9.32A9.29,9.29,0,0,0,242.57,34l-1.86-3.12a7.8,7.8,0,0,1-4.64,1.6,5.3,5.3,0,0,1-5.34-5.68,5.3,5.3,0,0,1,5.34-5.68,7.8,7.8,0,0,1,4.64,1.6l1.86-3.12a9.29,9.29,0,0,0-6.38-2.12c-5.72,0-9.47,3.93-9.47,9.32Zm36.15,0V17.92H259v2.15a6.73,6.73,0,0,0-5.6-2.6c-5,0-8.87,3.9-8.87,9.32s3.9,9.32,8.87,9.32a6.73,6.73,0,0,0,5.6-2.6v2.15h3.86Zm-14.36,0c0-3.12,2-5.68,5.38-5.68s5.34,2.45,5.34,5.68-2.15,5.68-5.34,5.68-5.38-2.56-5.38-5.68Zm-46.58-9.32c-5.2,0-8.83,3.79-8.83,9.32s3.79,9.32,9.09,9.32a10.78,10.78,0,0,0,7.27-2.49l-1.89-2.86a8.45,8.45,0,0,1-5.16,1.86c-2.49,0-4.75-1.15-5.31-4.34h13.18c0-.48.07-1,.07-1.48,0-5.53-3.45-9.32-8.43-9.32Zm-.07,3.45c2.49,0,4.08,1.56,4.49,4.31h-9.21c.41-2.56,2-4.31,4.71-4.31Zm96.84,5.86v-16h-3.86v9.28a6.73,6.73,0,0,0-5.6-2.6c-5,0-8.87,3.9-8.87,9.32s3.9,9.32,8.87,9.32a6.73,6.73,0,0,0,5.6-2.6v2.15h3.86ZM303.2,34a1.13,1.13,0,0,1,.45.09,1.16,1.16,0,0,1,.36.24,1.13,1.13,0,0,1,.25.36,1.11,1.11,0,0,1,0,.87,1.14,1.14,0,0,1-.25.36,1.18,1.18,0,0,1-.36.24,1.11,1.11,0,0,1-.45.09,1.15,1.15,0,0,1-1.06-.69,1.11,1.11,0,0,1,0-.87,1.13,1.13,0,0,1,.61-.6A1.17,1.17,0,0,1,303.2,34Zm0,2a.84.84,0,0,0,.34-.07.9.9,0,0,0,.28-.19.88.88,0,0,0,0-1.24.87.87,0,0,0-.28-.19.85.85,0,0,0-.34-.07.89.89,0,0,0-.35.07.86.86,0,0,0-.28.19.88.88,0,0,0,0,1.24.89.89,0,0,0,.28.19A.88.88,0,0,0,303.2,36Zm.07-1.4a.48.48,0,0,1,.31.09.3.3,0,0,1,.11.24.28.28,0,0,1-.09.21.41.41,0,0,1-.25.1l.34.39h-.27l-.32-.39H303v.39h-.22v-1Zm-.26.2v.28h.26a.25.25,0,0,0,.14,0,.12.12,0,0,0,.05-.11.12.12,0,0,0-.05-.1.25.25,0,0,0-.14,0Zm-18.68-8c0-3.12,2-5.68,5.38-5.68s5.34,2.45,5.34,5.68-2.15,5.68-5.34,5.68-5.38-2.56-5.38-5.68ZM154,26.79V17.92h-3.86v2.15a6.73,6.73,0,0,0-5.6-2.6c-5,0-8.87,3.9-8.87,9.32s3.9,9.32,8.87,9.32a6.73,6.73,0,0,0,5.6-2.6v2.15H154Zm-14.36,0c0-3.12,2-5.68,5.38-5.68s5.34,2.45,5.34,5.68-2.15,5.68-5.34,5.68S139.61,29.91,139.61,26.79Z"/></g></g></svg>