<svg xmlns="http://www.w3.org/2000/svg" viewBox="0 0 86 86"><defs><style>.cls-1{fill:#e19d2f;}.cls-2{fill:#fff;}</style></defs><title>Recurso 4</title><g id="Capa_2" data-name="Capa 2"><g id="Capa_1-2" data-name="Capa 1"><circle class="cls-1" cx="43" cy="43" r="43"/><path class="cls-2" d="M50.08,41.8h-3.4V38.4a1.24,1.24,0,0,0-1.23-1.25h-4.9a1.24,1.24,0,0,0-1.24,1.24v3.4H35.93A1.24,1.24,0,0,0,34.68,43v4.9a1.24,1.24,0,0,0,1.24,1.24h3.4v3.39a1.24,1.24,0,0,0,1.23,1.25h4.89a1.24,1.24,0,0,0,1.24-1.24h0v-3.4h3.4a1.24,1.24,0,0,0,1.25-1.23h0V43A1.24,1.24,0,0,0,50.08,41.8Zm-.42,5.7h-3.8a.83.83,0,0,0-.83.83v3.8H41v-3.8a.83.83,0,0,0-.83-.83h-3.8v-4h3.8a.83.83,0,0,0,.83-.83V38.82h4v3.8a.83.83,0,0,0,.83.83h3.81Z"/><path class="cls-2" d="M57.48,30.93H50.62V28a2.42,2.42,0,0,0-2.34-2.5H37.92a2.42,2.42,0,0,0-2.54,2.29c0,.07,0,.14,0,.2v2.91H28.52c-2.65,0-5.74,1.51-5.74,5.74v18.1c0,4.24,3.1,5.74,5.74,5.74h29c2.65,0,5.74-1.51,5.74-5.74V36.67C63.23,32.44,60.14,30.93,57.48,30.93ZM37,28a.78.78,0,0,1,.89-.89H48.08c.89,0,.89.64.89.89v2.91H37ZM61.56,54.76a3.74,3.74,0,0,1-4.08,4.08h-29a3.74,3.74,0,0,1-4.08-4.08V36.67a3.74,3.74,0,0,1,4.08-4.08h29a3.74,3.74,0,0,1,4.08,4.08V54.76Z"/></g></g></svg>