<svg xmlns="http://www.w3.org/2000/svg" viewBox="0 0 86 86"><defs><style>.cls-1{fill:#c90120;}.cls-2{fill:#fff;}</style></defs><title>Recurso 7</title><g id="Capa_2" data-name="Capa 2"><g id="Capa_1-2" data-name="Capa 1"><circle class="cls-1" cx="43" cy="43" r="43"/><path class="cls-2" d="M41.79,43.05a.82.82,0,1,0,1.16,0A.82.82,0,0,0,41.79,43.05Z"/><path class="cls-2" d="M54.83,24.4C53.42,25.49,53,26.05,48,31l-3-.49,1.37-1.37a2.46,2.46,0,1,0-3.48-3.48l-3.88,3.88L25.5,27.32a2.77,2.77,0,0,0-2.07,5L37,42.09l-2.53,2.53a20.58,20.58,0,0,0-2.72,3.55l-6.3-1.85A2.65,2.65,0,0,0,23.14,51l5.17,3.58c-.9,2-1.45,3.42-1.47,3.49a.82.82,0,0,0,1.06,1.06c.07,0,1.5-.57,3.49-1.47L35,62.86a2.65,2.65,0,0,0,4.72-2.26l-1.85-6.3a20.59,20.59,0,0,0,3.55-2.72L43.91,49,53.7,62.57a2.77,2.77,0,0,0,5-2.07L56.47,46.93l3.88-3.88a2.46,2.46,0,0,0-3.48-3.48L55.5,40.95,55,38c4.95-5,5.5-5.37,6.59-6.78h0c2.53-3.28,3.12-6.59,1.47-8.24S58.11,21.87,54.83,24.4ZM44.11,26.81A.82.82,0,1,1,45.27,28l-2.21,2.21-2-.32ZM24.4,31a1.13,1.13,0,0,1,.84-2l21.38,3.48-8.49,8.49Zm-.46,17.18a1,1,0,0,1,1-.26l5.9,1.73c-.6,1.06-1.21,2.22-1.82,3.49l-4.94-3.42A1,1,0,0,1,23.94,48.14ZM37.86,62.06a1,1,0,0,1-1.55-.14L32.89,57c1.26-.61,2.43-1.22,3.49-1.82l1.73,5.9A1,1,0,0,1,37.86,62.06ZM58,40.73a.82.82,0,0,1,1.16,1.16l-3,3-.32-2Zm-1,20a1.13,1.13,0,0,1-2,.84L45.09,47.87l8.49-8.49ZM40.22,50.42a20.66,20.66,0,0,1-3.93,2.9,60.79,60.79,0,0,1-7.2,3.58,60,60,0,0,1,3.66-7.33,20.31,20.31,0,0,1,2.82-3.79c20-20,18.85-19,20.07-19.93a4,4,0,0,1,4.5,4.5C59.18,31.57,60.2,30.39,40.22,50.42ZM61.56,28.19a5.41,5.41,0,0,0-3.75-3.75c1.19-.6,3.19-1.28,4.11-.36C62.64,24.81,62.46,26.42,61.56,28.19Z"/><path class="cls-2" d="M46.43,38.41l-2.32,2.32a.82.82,0,0,0,1.16,1.16l2.32-2.32a.82.82,0,1,0-1.16-1.16Z"/><path class="cls-2" d="M51.07,33.77l-2.32,2.32a.82.82,0,0,0,1.16,1.16l2.32-2.32a.82.82,0,1,0-1.16-1.16Z"/></g></g></svg>